<svg viewBox="0 0 132 48" fill="none" xmlns="http://www.w3.org/2000/svg">
<path d="M14.7651 15.8785C16.1927 15.8785 17.6224 15.8785 19.0964 15.8785C19.0964 16.7906 19.0964 17.6789 19.0964 18.6835C20.2474 16.3395 22.1858 15.4885 24.5887 15.5397C27.0118 15.5909 28.8513 16.6507 29.9437 18.7899C30.3294 18.3093 30.6808 17.7853 31.1189 17.346C32.2376 16.2232 33.643 15.6875 35.2281 15.5594C36.2761 15.4747 37.3079 15.5634 38.3074 15.8923C40.155 16.4971 41.2918 17.7892 41.944 19.5306C42.4125 20.7814 42.5438 22.0874 42.5458 23.4091C42.5498 26.4859 42.5478 29.5628 42.5478 32.6396C42.5478 32.7164 42.5377 32.7952 42.5296 32.9035C41.1182 32.9035 39.7128 32.9035 38.2589 32.9035C38.2589 32.7499 38.2589 32.5982 38.2589 32.4466C38.2589 29.5903 38.2751 26.7361 38.2468 23.8799C38.2408 23.2239 38.162 22.5463 37.9763 21.918C37.5946 20.6317 36.6981 19.8063 35.3088 19.6527C33.7359 19.4793 32.3971 19.9225 31.5309 21.3172C31.1068 21.9987 30.8968 22.7551 30.8887 23.547C30.8584 26.4918 30.8463 29.4367 30.8302 32.3835C30.8302 32.551 30.8302 32.7184 30.8302 32.9114C29.3763 32.9114 27.9548 32.9114 26.4868 32.9114C26.4868 32.7479 26.4868 32.5943 26.4868 32.4426C26.4848 29.3914 26.4929 26.3402 26.4706 23.2889C26.4626 22.304 26.2021 21.3684 25.5095 20.6179C24.4353 19.4537 23.0763 19.4143 21.677 19.8497C20.0737 20.348 19.369 21.5673 19.1832 23.1176C19.1186 23.6593 19.1166 24.2108 19.1146 24.7564C19.1085 27.3113 19.1126 29.8681 19.1126 32.4229C19.1126 32.5766 19.1126 32.7322 19.1126 32.937C17.6446 32.937 16.2049 32.937 14.7672 32.937C14.7651 27.2482 14.7651 21.5634 14.7651 15.8785Z" fill="#F6F6F6"/>
<path d="M59.5195 17.8997C59.5195 17.3127 59.5195 16.6194 59.5195 15.9024C60.9714 15.9024 62.3828 15.9024 63.8265 15.9024C63.8265 21.5537 63.8265 27.215 63.8265 32.9037C62.4171 32.9037 60.9976 32.9037 59.5417 32.9037C59.5417 32.1926 59.5417 31.4816 59.5417 30.7468C59.469 30.7705 59.4226 30.7705 59.4044 30.7941C58.2555 32.3108 56.626 33.0082 54.7844 33.2229C51.9615 33.5538 49.5041 32.7324 47.5253 30.7133C46.0997 29.2596 45.3768 27.4828 45.1708 25.4933C44.9507 23.3758 45.2577 21.3449 46.4026 19.517C48.1855 16.6706 50.855 15.3961 54.2493 15.5517C55.8183 15.6246 57.256 16.0915 58.4998 17.0567C58.8613 17.3384 59.2065 17.6397 59.5195 17.8997ZM54.3826 19.4717C51.6061 19.4736 49.5021 21.5715 49.4981 24.341C49.494 27.1342 51.6344 29.3187 54.3866 29.3266C57.2115 29.3364 59.4529 27.1322 59.4488 24.3528C59.4428 21.6384 57.1913 19.4697 54.3826 19.4717Z" fill="#F6F6F6"/>
<path d="M96.6853 17.9106C96.6853 17.3118 96.6853 16.6165 96.6853 15.9014C98.1371 15.9014 99.5486 15.9014 100.99 15.9014C100.99 21.5587 100.99 27.2199 100.99 32.9067C99.5748 32.9067 98.1553 32.9067 96.6994 32.9067C96.6994 32.1897 96.6994 31.4806 96.6994 30.6986C96.3602 31.0472 96.0957 31.3683 95.7827 31.6323C94.3612 32.8299 92.6589 33.3086 90.8234 33.2968C88.4044 33.281 86.3145 32.4241 84.6527 30.6848C83.219 29.1818 82.4961 27.3696 82.3164 25.3348C82.1266 23.1858 82.4779 21.1391 83.6895 19.3151C85.4846 16.6145 88.0975 15.405 91.3727 15.5508C92.9558 15.6217 94.4076 16.0866 95.6615 17.0616C96.023 17.3433 96.3642 17.6447 96.6853 17.9106ZM91.5362 19.4727C88.7618 19.4766 86.6578 21.5764 86.6557 24.346C86.6537 27.1372 88.7982 29.3217 91.5484 29.3276C94.3753 29.3335 96.6146 27.1293 96.6065 24.3499C96.6005 21.6355 94.349 19.4687 91.5362 19.4727Z" fill="#F6F6F6"/>
<path d="M80.0185 20.8269C78.6515 20.8269 77.2945 20.8269 75.9416 20.8269C75.5015 19.0718 73.6458 18.339 72.1051 19.3003C70.9763 20.0054 71.0026 21.4139 72.2121 21.9555C72.9653 22.2944 73.8013 22.4598 74.6069 22.6824C75.8488 23.0252 77.1189 23.2773 78.2436 23.9451C80.6889 25.3968 81.3714 28.4441 79.7176 30.6956C78.8312 31.9011 77.555 32.5688 76.1153 32.9451C73.7669 33.5597 71.4832 33.4316 69.3428 32.2241C67.6103 31.2451 66.6188 29.7757 66.4633 27.8039C66.4593 27.7547 66.4694 27.7034 66.4734 27.6325C67.8162 27.6325 69.1469 27.6325 70.5119 27.6325C70.6512 28.8026 71.3661 29.49 72.515 29.7619C73.4519 29.9825 74.3747 29.9017 75.245 29.4822C75.9881 29.1237 76.3132 28.5367 76.2405 27.8137C76.1819 27.2366 75.8205 26.8722 75.3137 26.691C74.5908 26.4329 73.8416 26.2418 73.0965 26.0468C71.9012 25.7336 70.7017 25.446 69.5932 24.8709C66.8833 23.4644 66.4391 20.5649 67.4083 18.6679C68.0929 17.3265 69.2378 16.4637 70.6634 15.9949C73.141 15.1814 75.5641 15.3291 77.8175 16.6883C79.3017 17.5846 79.9922 18.9674 80.0488 20.6574C80.0528 20.7087 80.0346 20.7579 80.0185 20.8269Z" fill="#F6F6F6"/>
<path d="M109.134 15.9141C109.134 21.5812 109.134 27.2326 109.134 32.9076C107.698 32.9076 106.279 32.9076 104.833 32.9076C104.833 27.2463 104.833 21.5969 104.833 15.9141C106.249 15.9141 107.668 15.9141 109.134 15.9141Z" fill="#F6F6F6"/>
<path d="M109.134 15.9141H104.835V27.3823L109.134 22.2155V15.9141Z" fill="#D71920"/>
<path d="M106.966 12.0772C108.305 12.0772 109.391 11.018 109.391 9.71144C109.391 8.40488 108.305 7.3457 106.966 7.3457C105.626 7.3457 104.541 8.40488 104.541 9.71144C104.541 11.018 105.626 12.0772 106.966 12.0772Z" fill="#F6F6F6"/>
<path d="M112.584 30.76C112.584 30.3469 112.685 29.9635 112.887 29.6098C113.091 29.256 113.371 28.9779 113.729 28.7755C114.089 28.571 114.477 28.4688 114.893 28.4688C115.309 28.4688 115.696 28.571 116.054 28.7755C116.412 28.9779 116.691 29.256 116.893 29.6098C117.097 29.9635 117.199 30.3469 117.199 30.76C117.199 31.1628 117.101 31.5401 116.906 31.8918C116.711 32.2435 116.433 32.5267 116.073 32.7414C115.716 32.9541 115.322 33.0604 114.893 33.0604C114.466 33.0604 114.073 32.9551 113.713 32.7445C113.355 32.5318 113.078 32.2496 112.88 31.8979C112.683 31.5462 112.584 31.1669 112.584 30.76ZM112.958 30.76C112.958 31.1117 113.045 31.4378 113.219 31.7384C113.392 32.037 113.627 32.2711 113.924 32.4408C114.223 32.6106 114.546 32.6954 114.893 32.6954C115.242 32.6954 115.566 32.6095 115.865 32.4378C116.165 32.264 116.399 32.0288 116.568 31.7323C116.739 31.4358 116.825 31.1117 116.825 30.76C116.825 30.4103 116.739 30.0883 116.568 29.7938C116.399 29.4973 116.165 29.2642 115.865 29.0945C115.566 28.9227 115.242 28.8368 114.893 28.8368C114.546 28.8368 114.223 28.9217 113.924 29.0914C113.625 29.2591 113.389 29.4922 113.215 29.7907C113.044 30.0893 112.958 30.4124 112.958 30.76ZM114.415 30.99V32.0268H113.957V29.4227H114.854C115.186 29.4227 115.443 29.4901 115.625 29.6251C115.809 29.758 115.901 29.9523 115.901 30.2079C115.901 30.4594 115.762 30.6516 115.485 30.7845C115.749 30.8868 115.883 31.0953 115.885 31.4102V31.5973C115.885 31.7732 115.903 31.9 115.94 31.9777V32.0268H115.469C115.438 31.9531 115.423 31.8223 115.423 31.6342C115.423 31.444 115.42 31.3315 115.413 31.2968C115.379 31.1005 115.237 30.9982 114.987 30.99H114.415ZM114.415 30.5974H114.922C115.078 30.5933 115.204 30.5575 115.3 30.4901C115.395 30.4226 115.443 30.3336 115.443 30.2232C115.443 30.0739 115.4 29.9686 115.316 29.9073C115.231 29.8439 115.081 29.8122 114.864 29.8122H114.415V30.5974Z" fill="#F6F6F6"/>
</svg>
